# xmcd CD database file
#
# Track frame offsets:
#	150
#	20955
#	50537
#	67468
#	85163
#	100635
#	124790
#	133770
#
# Disc length: 2070 seconds
#
# Revision: 2
# Processed by: cddbd v1.5.2PL0 Copyright (c) Steve Scherf et al.
# Submitted via: CDex 1.70beta2
#
DISCID=74081408
DTITLE=るり - るり式
DYEAR=2002
DGENRE=Folk
TTITLE0=ぼくが君の思い出になってあげよう
TTITLE1=傘がない
TTITLE2=君と旅行鞄
TTITLE3=カレーライス
TTITLE4=バス通り
TTITLE5=甲州街道はもう秋なのさ
TTITLE6=南房総国定公園新舞子浜海岸より
TTITLE7=冬のサナトリウム
EXTD=YEAR: 2002
EXTT0=
EXTT1=
EXTT2=
EXTT3=
EXTT4=
EXTT5=
EXTT6=
EXTT7=
PLAYORDER=
